<?xml version="1.0" encoding="UTF-8" standalone="no"?>
<!-- Created with Inkscape (http://www.inkscape.org/) -->

<svg
   xmlns:dc="http://purl.org/dc/elements/1.1/"
   xmlns:cc="http://creativecommons.org/ns#"
   xmlns:rdf="http://www.w3.org/1999/02/22-rdf-syntax-ns#"
   xmlns:svg="http://www.w3.org/2000/svg"
   xmlns="http://www.w3.org/2000/svg"
   xmlns:sodipodi="http://sodipodi.sourceforge.net/DTD/sodipodi-0.dtd"
   xmlns:inkscape="http://www.inkscape.org/namespaces/inkscape"
   id="svg2"
   version="1.1"
   inkscape:version="0.91 r13725"
   xml:space="preserve"
   width="440"
   height="220"
   viewBox="0 0 440 220"
   sodipodi:docname="banner440x280svg.svg"><metadata
     id="metadata8"><rdf:RDF><cc:Work
         rdf:about=""><dc:format>image/svg+xml</dc:format><dc:type
           rdf:resource="http://purl.org/dc/dcmitype/StillImage" /><dc:title></dc:title></cc:Work></rdf:RDF></metadata><defs
     id="defs6" /><sodipodi:namedview
     pagecolor="#ffffff"
     bordercolor="#666666"
     borderopacity="1"
     objecttolerance="10"
     gridtolerance="10"
     guidetolerance="10"
     inkscape:pageopacity="0"
     inkscape:pageshadow="2"
     inkscape:window-width="1920"
     inkscape:window-height="1176"
     id="namedview4"
     showgrid="false"
     fit-margin-top="0"
     fit-margin-left="0"
     fit-margin-right="0"
     fit-margin-bottom="0"
     inkscape:zoom="0.22250293"
     inkscape:cx="-114.44953"
     inkscape:cy="-1002.935"
     inkscape:window-x="3840"
     inkscape:window-y="0"
     inkscape:window-maximized="1"
     inkscape:current-layer="g10" /><g
     id="g10"
     inkscape:groupmode="layer"
     inkscape:label="ink_ext_XXXXXX"
     transform="matrix(1.25,0,0,-1.25,-101.12226,1408.7483)"><rect
       style="opacity:1;fill:#d5e2e3;fill-opacity:1;fill-rule:nonzero;stroke:none;stroke-width:1.10000002;stroke-miterlimit:10;stroke-dasharray:none;stroke-opacity:1"
       id="rect4641"
       width="352"
       height="176"
       x="80.897812"
       y="-1126.9987"
       transform="scale(1,-1)" /><g
       id="g4672"
       transform="translate(-0.23149803,0)"><g
         transform="matrix(0.66422064,0,0,0.66422064,-289.28517,873.72786)"
         id="g4643"><path
           inkscape:connector-curvature="0"
           id="path336"
           style="fill:#ee834f;fill-opacity:1;fill-rule:nonzero;stroke:none"
           d="m 1044.98,244.96 -63.992,0 0,6.921 c 0,4.351 -3.527,7.877 -7.878,7.877 l -30.532,0 c -4.351,0 -7.878,-3.526 -7.878,-7.877 l 0,-91.321 c 0,-4.35 3.527,-7.88 7.878,-7.88 l 102.402,0 c 4.35,0 7.88,3.53 7.88,7.88 l 0,76.523 c 0,4.35 -3.53,7.877 -7.88,7.877" /><path
           inkscape:connector-curvature="0"
           id="path338"
           style="fill:#ffffff;fill-opacity:1;fill-rule:nonzero;stroke:none"
           d="m 947.827,190.51 91.9031,0 0,43.0719 -91.9031,0 0,-43.0719 z" /><path
           inkscape:connector-curvature="0"
           id="path340"
           style="fill:#42484a;fill-opacity:1;fill-rule:nonzero;stroke:none"
           d="m 953.409,225.704 80.741,0 0,2.62617 -80.741,0 0,-2.62617 z" /><path
           inkscape:connector-curvature="0"
           id="path342"
           style="fill:#42484a;fill-opacity:1;fill-rule:nonzero;stroke:none"
           d="m 953.409,218.874 80.741,0 0,2.62578 -80.741,0 0,-2.62578 z" /><path
           inkscape:connector-curvature="0"
           id="path344"
           style="fill:#42484a;fill-opacity:1;fill-rule:nonzero;stroke:none"
           d="m 953.409,212.044 80.741,0 0,2.62578 -80.741,0 0,-2.62578 z" /><path
           inkscape:connector-curvature="0"
           id="path346"
           style="fill:#ee834f;fill-opacity:1;fill-rule:nonzero;stroke:none"
           d="m 934.7,207.463 0,-46.903 c 0,-4.35 3.527,-7.88 7.878,-7.88 l 102.402,0 c 4.35,0 7.88,3.53 7.88,7.88 l 0,46.903 -118.16,0" /></g><g
         transform="matrix(0.75541788,0,0,0.75541788,-610.57075,316.74385)"
         id="g4651"><path
           inkscape:connector-curvature="0"
           id="path296"
           style="fill:#ffffff;fill-opacity:1;fill-rule:nonzero;stroke:none"
           d="m 1041.35,944.826 c 0,-3.104 -2.52,-5.621 -5.62,-5.621 l -83.9,0 c -3.104,0 -5.621,2.517 -5.621,5.621 l 0,97.904 c 0,3.11 2.517,5.62 5.621,5.62 l 83.9,0 c 3.1,0 5.62,-2.51 5.62,-5.62 l 0,-97.904" /><path
           inkscape:connector-curvature="0"
           id="path298"
           style="fill:#4cc0ce;fill-opacity:1;fill-rule:nonzero;stroke:none"
           d="m 960.838,1021.06 11.7172,0 0,11.7168 -11.7172,0 0,-11.7168 z" /><path
           inkscape:connector-curvature="0"
           id="path300"
           style="fill:#4cc0ce;fill-opacity:1;fill-rule:nonzero;stroke:none"
           d="m 979.331,1024.4 47.3891,0 0,5.025 -47.3891,0 0,-5.025 z" /><path
           inkscape:connector-curvature="0"
           id="path302"
           style="fill:#4cc0ce;fill-opacity:1;fill-rule:nonzero;stroke:none"
           d="m 960.838,998.966 11.7172,0 0,11.7172 -11.7172,0 0,-11.7172 z" /><path
           inkscape:connector-curvature="0"
           id="path304"
           style="fill:#4cc0ce;fill-opacity:1;fill-rule:nonzero;stroke:none"
           d="m 979.331,1002.31 47.3891,0 0,5.0238 -47.3891,0 0,-5.0238 z" /><path
           inkscape:connector-curvature="0"
           id="path306"
           style="fill:#4cc0ce;fill-opacity:1;fill-rule:nonzero;stroke:none"
           d="m 960.838,976.876 11.7172,0 0,11.7168 -11.7172,0 0,-11.7168 z" /><path
           inkscape:connector-curvature="0"
           id="path308"
           style="fill:#4cc0ce;fill-opacity:1;fill-rule:nonzero;stroke:none"
           d="m 979.331,980.222 47.3891,0 0,5.02422 -47.3891,0 0,-5.02422 z" /><path
           inkscape:connector-curvature="0"
           id="path310"
           style="fill:#4cc0ce;fill-opacity:1;fill-rule:nonzero;stroke:none"
           d="m 960.838,954.785 11.7172,0 0,11.718 -11.7172,0 0,-11.718 z" /><path
           inkscape:connector-curvature="0"
           id="path312"
           style="fill:#4cc0ce;fill-opacity:1;fill-rule:nonzero;stroke:none"
           d="m 979.331,958.132 47.3891,0 0,5.02422 -47.3891,0 0,-5.02422 z" /></g><g
         transform="translate(5.0925781,0)"
         id="g4666"><g
           id="g4662"
           transform="matrix(-0.75916676,0,0,-0.75916676,449.92914,1852.6789)"
           style="fill:#42484a;fill-opacity:1"><path
             d="m 246.3928,1015.7727 32.9051,0 0,55.009 -32.9051,0 0,-55.009 z"
             style="fill:#42484a;fill-opacity:1;fill-rule:nonzero;stroke:none"
             id="path316"
             inkscape:connector-curvature="0" /><path
             d="m 262.8468,1096.8187 13.631,-17.755 13.64,-17.755 -54.539,0 13.634,17.755 13.634,17.755"
             style="fill:#42484a;fill-opacity:1;fill-rule:nonzero;stroke:none"
             id="path318"
             inkscape:connector-curvature="0" /></g><path
           inkscape:connector-curvature="0"
           id="path320"
           style="fill:#42484a;fill-opacity:1;fill-rule:nonzero;stroke:none"
           d="m 277.10573,1038.3361 0,-22.7537 -53.44458,0 0,22.7537 -15.40349,0 0,-38.96808 84.25157,0 0,38.96808 -15.4035,0" /></g></g></g></svg>